<?xml version="1.0" encoding="utf-8"?>
<!-- Generator: Adobe Illustrator 21.0.0, SVG Export Plug-In . SVG Version: 6.00 Build 0)  -->
<svg version="1.1" id="Ebene_1" xmlns="http://www.w3.org/2000/svg" xmlns:xlink="http://www.w3.org/1999/xlink" x="0px" y="0px"
	 viewBox="0 0 500 500" style="enable-background:new 0 0 500 500;" xml:space="preserve">
<style type="text/css">
	.st0{display:none;fill:#424242;}
	.st1{display:none;fill:#FFCB2E;}
	.st2{display:none;fill:#FFFFFF;}
	.st3{fill:#FFFFFF;}
</style>
<rect class="st0" width="500" height="500"/>
<path class="st1" d="M250,415.9c-91.5,0-165.9-74.4-165.9-165.9c0-91.5,74.4-165.9,165.9-165.9c91.5,0,165.9,74.4,165.9,165.9
	C415.9,341.5,341.5,415.9,250,415.9z"/>
<path class="st2" d="M250,99.2c83.3,0,150.8,67.5,150.8,150.8c0,83.3-67.5,150.8-150.8,150.8c-83.3,0-150.8-67.5-150.8-150.8
	C99.2,166.7,166.7,99.2,250,99.2 M250,69c-99.8,0-181,81.2-181,181s81.2,181,181,181s181-81.2,181-181S349.8,69,250,69L250,69z"/>
<path class="st3" d="M294,345.3c0,8.3-6.8,15-15,15c-47.9-1.5-78.5,28-83.5,33c-33.9,33.9-33.3,76.5-33,83.5c0,8.3-6.8,15-15,15
	s-15-6.8-15-15c0.2-7.1,0.9-49.6-33-83.5c-33.9-33.9-76.5-33.3-83.5-33c-8.3,0-15-6.8-15-15c0-8.3,6.8-15,15-15
	c7.1,0.2,49.6,0.9,83.5-33c33.9-33.9,33.3-76.5,33-83.5c0-8.3,6.8-15,15-15s15,6.8,15,15c-0.2,7.1-0.9,49.6,33,83.5
	c5,5,35.6,34.6,83.5,33C287.2,330.3,294,337.1,294,345.3z"/>
<path class="st3" d="M396.7,110.7c0,5.8-4.8,10.5-10.5,10.5c-33.6-1.1-55,19.6-58.5,23.1c-23.7,23.7-23.3,53.5-23.1,58.5
	c0,5.8-4.8,10.5-10.5,10.5c-5.8,0-10.5-4.8-10.5-10.5c0.2-5,0.6-34.7-23.1-58.5c-23.7-23.7-53.5-23.3-58.5-23.1
	c-5.8,0-10.5-4.8-10.5-10.5c0-5.8,4.8-10.5,10.5-10.5c5,0.2,34.7,0.6,58.5-23.1c23.7-23.7,23.3-53.5,23.1-58.5
	c0-5.8,4.8-10.5,10.5-10.5c5.8,0,10.5,4.8,10.5,10.5c-0.2,5-0.6,34.7,23.1,58.5c3.5,3.5,24.9,24.2,58.5,23.1
	C391.9,100.1,396.7,104.9,396.7,110.7z"/>
<path class="st3" d="M499.3,272c0,4.1-3.4,7.5-7.5,7.5c-24-0.8-39.3,14-41.8,16.5c-17,17-16.6,38.2-16.5,41.8c0,4.1-3.4,7.5-7.5,7.5
	s-7.5-3.4-7.5-7.5c0.1-3.5,0.4-24.8-16.5-41.8c-17-17-38.2-16.6-41.8-16.5c-4.1,0-7.5-3.4-7.5-7.5s3.4-7.5,7.5-7.5
	c3.5,0.1,24.8,0.4,41.8-16.5c17-17,16.6-38.2,16.5-41.8c0-4.1,3.4-7.5,7.5-7.5s7.5,3.4,7.5,7.5c-0.1,3.5-0.4,24.8,16.5,41.8
	c2.5,2.5,17.8,17.3,41.8,16.5C495.9,264.5,499.3,267.9,499.3,272z"/>
</svg>
